<svg xmlns="http://www.w3.org/2000/svg" xmlns:xlink="http://www.w3.org/1999/xlink" width="16pt" height="15pt" viewBox="0 0 16 15" version="1.1">
<g>
<path style=" stroke:none;fill-rule:nonzero;fill:rgb(0%,0%,0%);fill-opacity:1;" d="M 14.355469 4.445312 C 14.367188 4.578125 14.367188 4.710938 14.367188 4.84375 C 14.367188 8.910156 11.066406 13.589844 5.035156 13.589844 C 3.175781 13.589844 1.453125 13.085938 0 12.210938 C 0.265625 12.238281 0.519531 12.25 0.792969 12.25 C 2.324219 12.25 3.734375 11.765625 4.863281 10.9375 C 3.421875 10.90625 2.214844 10.023438 1.796875 8.804688 C 2 8.832031 2.203125 8.851562 2.417969 8.851562 C 2.710938 8.851562 3.003906 8.8125 3.277344 8.746094 C 1.777344 8.460938 0.648438 7.222656 0.648438 5.730469 L 0.648438 5.691406 C 1.085938 5.921875 1.59375 6.0625 2.132812 6.082031 C 1.25 5.53125 0.671875 4.585938 0.671875 3.523438 C 0.671875 2.949219 0.832031 2.425781 1.117188 1.96875 C 2.730469 3.835938 5.15625 5.054688 7.878906 5.1875 C 7.828125 4.957031 7.796875 4.722656 7.796875 4.484375 C 7.796875 2.789062 9.257812 1.410156 11.074219 1.410156 C 12.019531 1.410156 12.871094 1.78125 13.472656 2.378906 C 14.214844 2.246094 14.921875 1.988281 15.554688 1.636719 C 15.308594 2.351562 14.792969 2.949219 14.113281 3.332031 C 14.773438 3.265625 15.410156 3.09375 16 2.855469 C 15.554688 3.464844 14.996094 4.007812 14.355469 4.445312 Z M 14.355469 4.445312 "/>
</g>
</svg>
